<svg xmlns="http://www.w3.org/2000/svg" version="1.1" xmlns:xlink="http://www.w3.org/1999/xlink" xmlns:svgjs="http://svgjs.dev/svgjs" viewBox="0 0 800 400"><path d="M237.2197265625,187.44393920898438C240.6576944986979,185.65021769205728,250.07473754882812,179.3721923828125,257.8475341796875,176.68161010742188C265.6203308105469,173.99102783203125,275.7847595214844,172.64573669433594,283.85650634765625,171.30044555664062C291.9282531738281,169.9551544189453,299.2526041666667,168.16143290201822,306.27801513671875,168.60986328125C313.3034261067708,169.05829366048178,319.5814666748047,171.59939829508463,326.00897216796875,173.99102783203125C332.4364776611328,176.38265736897787,337.5186818440755,180.1195805867513,344.8430480957031,182.9596405029297C352.16741434733075,185.79970041910806,362.182373046875,188.63975779215494,369.9551696777344,191.03138732910156C377.72796630859375,193.4230168660482,383.85651143391925,195.51569620768228,391.4798278808594,197.30941772460938C399.1031443277995,199.10313924153647,407.9222768147786,201.19580841064453,415.695068359375,201.79371643066406C423.4678599039714,202.3916244506836,430.4932607014974,201.94320170084634,438.1165771484375,200.89686584472656C445.7398935953776,199.85052998860678,454.4095509847005,198.0568084716797,461.4349670410156,195.5157012939453C468.46038309733075,192.97459411621094,477.1300557454427,187.29446919759116,480.2690734863281,185.6502227783203" fill="none" stroke-width="2" stroke="hsl(0, 0%, 50%)" stroke-linecap="round" stroke-dasharray="3 6"></path><defs><linearGradient id="SvgjsLinearGradient1003" gradientTransform="rotate(0, 0.5, 0.5)"><stop stop-color="hsl(37, 99%, 67%)" offset="0"></stop><stop stop-color="hsl(316, 73%, 52%)" offset="1"></stop></linearGradient></defs></svg>