<svg xmlns="http://www.w3.org/2000/svg" version="1.1" xmlns:xlink="http://www.w3.org/1999/xlink" xmlns:svgjs="http://svgjs.dev/svgjs" viewBox="0 0 800 400"><path d="M247.085205078125,198.20628356933594C250.2242177327474,195.36622365315756,258.146484375,186.69656880696616,265.9192810058594,181.16592407226562C273.69207763671875,175.6352793375651,283.55756123860675,169.2077662150065,293.72198486328125,165.0224151611328C303.88640848795575,160.83706410725912,316.14349365234375,157.69806162516275,326.90582275390625,156.05381774902344C337.66815185546875,154.40957387288412,349.47682698567706,153.51270802815756,358.29595947265625,155.15695190429688C367.11509195963544,156.8011957804362,372.3467763264974,161.7339299519857,379.82061767578125,165.91928100585938C387.2944590250651,170.10463205973306,396.56202697753906,175.6352767944336,403.1390075683594,180.26905822753906C409.7159881591797,184.90283966064453,412.85499572753906,188.78923543294272,419.2825012207031,193.7219696044922C425.7100067138672,198.65470377604166,434.0807189941406,205.08220418294272,441.70404052734375,209.86546325683594C449.3273620605469,214.64872233072916,456.6517283121745,218.98355611165366,465.0224304199219,222.42152404785156C473.39313252766925,225.85949198404947,482.6606903076172,229.29745737711588,491.9282531738281,230.49327087402344C501.19581604003906,231.689084370931,511.8086700439453,231.53960418701172,520.6278076171875,229.59640502929688C529.4469451904297,227.65320587158203,537.2197570800781,222.8699493408203,544.8430786132812,218.83407592773438C552.4664001464844,214.79820251464844,559.4918111165365,210.91180674235025,566.3677368164062,205.38116455078125C573.243662516276,199.85052235921225,582.8101501464844,188.93871307373047,586.0986328125,185.6502227783203" fill="none" stroke-width="2" stroke="url(&quot;#SvgjsLinearGradient1002&quot;)" stroke-linecap="round" stroke-dasharray="5 11" transform="matrix(-1.0000000000000002,-3.885780586188048e-16,3.885780586188048e-16,-1.0000000000000002,833.183837890625,385.53950500488287)"></path><defs><linearGradient id="SvgjsLinearGradient1002"><stop stop-color="hsl(230, 55%, 50%)" offset="0"></stop><stop stop-color="hsl(0, 0%, 53%)" offset="1"></stop></linearGradient></defs></svg>